<?xml version="1.0" standalone="no"?>
<!DOCTYPE svg PUBLIC "-//W3C//DTD SVG 20010904//EN"
 "http://www.w3.org/TR/2001/REC-SVG-20010904/DTD/svg10.dtd">
<svg version="1.0" xmlns="http://www.w3.org/2000/svg"
 width="512.000000pt" height="512.000000pt" viewBox="0 0 512.000000 512.000000"
 preserveAspectRatio="xMidYMid meet">

<g transform="translate(0.000000,512.000000) scale(0.100000,-0.100000)"
fill="#333333" stroke="none">
<path d="M2410 5114 c-498 -64 -911 -346 -1135 -776 -63 -122 -107 -242 -136
-376 -19 -84 -22 -138 -26 -409 l-5 -313 -32 0 c-44 0 -133 -27 -182 -56 -59
-35 -141 -125 -169 -187 -39 -84 -45 -142 -45 -428 l0 -269 -243 0 c-241 0
-243 0 -295 -26 -29 -14 -65 -42 -82 -62 -60 -73 -61 -81 -58 -608 3 -533 1
-517 73 -589 67 -66 84 -70 358 -73 l247 -3 0 -270 c0 -209 4 -286 16 -339 25
-113 114 -229 213 -280 103 -52 41 -50 1651 -50 1610 0 1548 -2 1651 50 99 51
188 167 213 280 12 53 16 130 16 339 l0 271 234 0 c253 0 285 5 351 56 19 14
48 53 65 87 l30 60 0 472 c0 517 -1 525 -60 597 -17 20 -53 48 -82 62 -52 26
-54 26 -295 26 l-243 0 0 269 c0 286 -6 344 -45 428 -28 62 -110 152 -169 187
-49 29 -138 56 -182 56 l-32 0 -5 313 c-4 270 -7 325 -26 409 -126 572 -562
1009 -1129 1128 -95 20 -359 34 -442 24z m395 -189 c261 -54 468 -166 656
-354 184 -185 290 -374 351 -631 17 -73 21 -130 25 -392 l5 -308 -171 0 -171
0 0 239 c0 278 -9 360 -54 494 -48 142 -113 244 -226 357 -112 112 -215 177
-358 226 -525 180 -1076 -127 -1218 -678 -13 -48 -18 -131 -21 -350 l-5 -288
-170 0 -170 0 5 308 c4 262 8 319 25 392 58 244 163 439 330 612 97 101 157
149 271 217 141 85 319 147 486 170 96 13 313 6 410 -14z m-141 -495 c168 -25
316 -99 436 -219 87 -88 140 -169 180 -279 40 -111 50 -201 50 -463 l0 -229
-770 0 -770 0 0 243 c1 264 10 346 54 461 39 102 92 182 176 267 172 172 408
253 644 219z m1451 -1384 c59 -27 117 -88 136 -142 11 -30 14 -107 14 -319 l0
-280 -1705 0 -1705 0 0 280 c0 212 3 289 14 319 19 54 77 115 136 142 l50 24
1505 0 1505 0 50 -24z m790 -922 c43 -17 45 -39 45 -509 l0 -447 -29 -29 -29
-29 -2332 0 -2332 0 -29 29 -29 29 0 447 c0 374 2 451 15 475 8 15 20 30 27
33 19 8 4673 8 4693 1z m-637 -1471 c-3 -278 -4 -290 -26 -335 -13 -27 -42
-63 -64 -82 -82 -71 29 -66 -1618 -66 -1647 0 -1536 -5 -1618 66 -22 19 -51
55 -64 82 -22 45 -23 57 -26 335 l-3 287 1711 0 1711 0 -3 -287z"/>
<path d="M1053 2876 c-28 -24 -28 -26 -31 -157 -4 -151 1 -192 29 -220 28 -28
89 -26 117 4 20 21 22 34 22 125 l0 102 101 0 c98 0 101 1 130 29 37 37 38 78
4 115 l-24 26 -160 0 c-155 0 -161 -1 -188 -24z"/>
<path d="M625 1935 c-21 -21 -25 -33 -25 -89 l0 -66 -77 51 c-88 57 -120 60
-160 13 -46 -52 -24 -97 78 -165 44 -28 79 -54 79 -58 0 -3 -37 -30 -81 -59
-49 -33 -84 -63 -90 -79 -13 -35 -2 -79 24 -98 39 -27 82 -18 155 30 l67 45 5
-70 c6 -79 18 -98 73 -107 31 -5 40 -1 67 25 27 27 30 37 30 91 l0 61 67 -45
c49 -32 78 -45 104 -45 47 0 79 33 79 81 0 41 -21 63 -118 129 l-64 42 81 54
c85 57 101 76 101 121 -1 32 -15 55 -48 72 -32 17 -63 8 -133 -40 -32 -21 -60
-39 -63 -39 -4 0 -6 23 -6 51 0 79 -29 118 -88 119 -22 0 -41 -8 -57 -25z"/>
<path d="M1565 1935 c-21 -20 -25 -34 -25 -85 0 -35 -4 -60 -11 -60 -5 0 -38
19 -72 42 -76 52 -118 56 -153 14 -25 -28 -31 -65 -14 -95 5 -10 45 -42 90
-71 44 -29 80 -55 80 -59 0 -3 -34 -28 -76 -55 -41 -27 -82 -58 -90 -70 -36
-52 4 -126 69 -126 23 0 56 14 103 45 l69 44 5 -70 c4 -59 9 -74 29 -90 32
-26 74 -24 107 5 24 20 28 32 32 89 l4 66 67 -45 c80 -54 128 -59 160 -18 46
58 18 111 -93 179 -36 22 -65 42 -66 45 0 3 34 27 76 54 86 56 104 77 104 122
0 24 -8 39 -32 59 -40 34 -68 29 -148 -25 -32 -22 -61 -40 -63 -40 -3 0 -7 27
-9 60 -3 45 -10 66 -28 85 -32 34 -82 34 -115 0z"/>
<path d="M2505 1937 c-22 -18 -27 -34 -32 -85 -3 -34 -8 -62 -10 -62 -2 0 -31
18 -63 40 -83 56 -111 60 -150 22 -31 -31 -38 -68 -20 -101 5 -10 45 -42 90
-71 44 -29 80 -55 80 -59 0 -3 -34 -28 -76 -55 -41 -27 -82 -58 -90 -70 -21
-31 -17 -74 11 -101 37 -38 78 -33 158 20 l67 45 0 -47 c0 -92 53 -150 118
-127 35 12 62 66 62 127 l0 47 67 -45 c80 -53 121 -58 158 -20 28 27 32 70 11
101 -8 12 -49 43 -90 70 -42 27 -76 52 -76 55 0 4 36 30 80 59 45 29 85 61 90
71 18 33 11 70 -20 101 -39 38 -67 34 -150 -22 -32 -22 -61 -40 -63 -40 -2 0
-7 28 -10 62 -5 51 -10 67 -32 85 -14 13 -39 23 -55 23 -16 0 -41 -10 -55 -23z"/>
<path d="M3440 1935 c-18 -19 -25 -40 -28 -85 -2 -33 -6 -60 -9 -60 -2 0 -31
18 -63 40 -80 54 -108 59 -148 25 -24 -20 -32 -35 -32 -59 0 -45 20 -68 105
-121 41 -26 75 -50 75 -54 0 -3 -28 -24 -62 -46 -100 -64 -118 -83 -118 -120
0 -18 9 -44 21 -59 32 -41 80 -36 160 18 l67 45 4 -66 c4 -57 8 -69 32 -89 33
-29 75 -31 107 -5 20 16 25 31 29 90 l5 70 69 -44 c47 -31 80 -45 103 -45 65
0 105 74 69 126 -8 12 -49 43 -90 70 -42 27 -76 52 -76 55 0 4 35 30 79 58
103 68 124 113 77 167 -35 42 -77 38 -153 -14 -34 -23 -67 -42 -72 -42 -7 0
-11 25 -11 60 0 51 -4 65 -25 85 -33 34 -83 34 -115 0z"/>
<path d="M4125 1425 c-17 -16 -25 -35 -25 -60 0 -25 8 -44 25 -60 l24 -25 286
0 287 0 29 29 c17 18 29 40 29 56 0 16 -12 38 -29 56 l-29 29 -287 0 -286 0
-24 -25z"/>
</g>
</svg>
